<svg width="119" height="15" viewBox="0 0 119 15" fill="none" xmlns="http://www.w3.org/2000/svg">
<path d="M5.372 14.119C4.49933 14.119 3.71733 13.9773 3.026 13.694C2.33467 13.4107 1.77933 12.9913 1.36 12.436C0.952 11.8807 0.736667 11.212 0.714 10.43H3.808C3.85333 10.872 4.00633 11.212 4.267 11.45C4.52767 11.6767 4.86767 11.79 5.287 11.79C5.71767 11.79 6.05767 11.6937 6.307 11.501C6.55633 11.297 6.681 11.0193 6.681 10.668C6.681 10.3733 6.579 10.1297 6.375 9.937C6.18233 9.74433 5.93867 9.58567 5.644 9.461C5.36067 9.33633 4.95267 9.19467 4.42 9.036C3.64933 8.798 3.02033 8.56 2.533 8.322C2.04567 8.084 1.62633 7.73267 1.275 7.268C0.923667 6.80333 0.748 6.197 0.748 5.449C0.748 4.33833 1.15033 3.47133 1.955 2.848C2.75967 2.21333 3.808 1.896 5.1 1.896C6.41467 1.896 7.47433 2.21333 8.279 2.848C9.08367 3.47133 9.51433 4.344 9.571 5.466H6.426C6.40333 5.08067 6.26167 4.78033 6.001 4.565C5.74033 4.33833 5.406 4.225 4.998 4.225C4.64667 4.225 4.36333 4.32133 4.148 4.514C3.93267 4.69533 3.825 4.96167 3.825 5.313C3.825 5.69833 4.00633 5.99867 4.369 6.214C4.73167 6.42933 5.29833 6.66167 6.069 6.911C6.83967 7.17167 7.463 7.421 7.939 7.659C8.42633 7.897 8.84567 8.24267 9.197 8.696C9.54833 9.14933 9.724 9.733 9.724 10.447C9.724 11.127 9.54833 11.7447 9.197 12.3C8.857 12.8553 8.35833 13.2973 7.701 13.626C7.04367 13.9547 6.26733 14.119 5.372 14.119ZM23.617 4.412C24.7957 4.412 25.7307 4.769 26.422 5.483C27.1247 6.197 27.476 7.18867 27.476 8.458V14H24.586V8.849C24.586 8.237 24.4217 7.76667 24.093 7.438C23.7757 7.098 23.3337 6.928 22.767 6.928C22.2003 6.928 21.7527 7.098 21.424 7.438C21.1067 7.76667 20.948 8.237 20.948 8.849V14H18.058V8.849C18.058 8.237 17.8937 7.76667 17.565 7.438C17.2477 7.098 16.8057 6.928 16.239 6.928C15.6723 6.928 15.2247 7.098 14.896 7.438C14.5787 7.76667 14.42 8.237 14.42 8.849V14H11.513V4.514H14.42V5.704C14.7147 5.30733 15.1 4.99567 15.576 4.769C16.052 4.531 16.5903 4.412 17.191 4.412C17.905 4.412 18.5397 4.565 19.095 4.871C19.6617 5.177 20.1037 5.61333 20.421 6.18C20.7497 5.65867 21.1973 5.23367 21.764 4.905C22.3307 4.57633 22.9483 4.412 23.617 4.412ZM28.9311 9.24C28.9311 8.26533 29.1124 7.40967 29.4751 6.673C29.8491 5.93633 30.3534 5.36967 30.9881 4.973C31.6227 4.57633 32.3311 4.378 33.1131 4.378C33.7817 4.378 34.3654 4.514 34.8641 4.786C35.3741 5.058 35.7651 5.415 36.0371 5.857V4.514H38.9441V14H36.0371V12.657C35.7537 13.099 35.3571 13.456 34.8471 13.728C34.3484 14 33.7647 14.136 33.0961 14.136C32.3254 14.136 31.6227 13.9377 30.9881 13.541C30.3534 13.133 29.8491 12.5607 29.4751 11.824C29.1124 11.076 28.9311 10.2147 28.9311 9.24ZM36.0371 9.257C36.0371 8.53167 35.8331 7.95933 35.4251 7.54C35.0284 7.12067 34.5411 6.911 33.9631 6.911C33.3851 6.911 32.8921 7.12067 32.4841 7.54C32.0874 7.948 31.8891 8.51467 31.8891 9.24C31.8891 9.96533 32.0874 10.5433 32.4841 10.974C32.8921 11.3933 33.3851 11.603 33.9631 11.603C34.5411 11.603 35.0284 11.3933 35.4251 10.974C35.8331 10.5547 36.0371 9.98233 36.0371 9.257ZM43.9542 6.095C44.2942 5.57367 44.7192 5.16567 45.2292 4.871C45.7392 4.565 46.3058 4.412 46.9292 4.412V7.489H46.1302C45.4048 7.489 44.8608 7.64767 44.4982 7.965C44.1355 8.271 43.9542 8.815 43.9542 9.597V14H41.0472V4.514H43.9542V6.095ZM53.6056 11.535V14H52.1266C51.0726 14 50.251 13.745 49.6616 13.235C49.0723 12.7137 48.7776 11.8693 48.7776 10.702V6.928H47.6216V4.514H48.7776V2.202H51.6846V4.514H53.5886V6.928H51.6846V10.736C51.6846 11.0193 51.7526 11.2233 51.8886 11.348C52.0246 11.4727 52.2513 11.535 52.5686 11.535H53.6056Z" fill="#F35D0C"/>
<path d="M58.3344 8.016C58.3344 6.83733 58.5894 5.789 59.0994 4.871C59.6094 3.94167 60.3178 3.222 61.2244 2.712C62.1424 2.19067 63.1794 1.93 64.3354 1.93C65.7521 1.93 66.9648 2.304 67.9734 3.052C68.9821 3.8 69.6564 4.82 69.9964 6.112H66.8004C66.5624 5.61333 66.2224 5.23367 65.7804 4.973C65.3498 4.71233 64.8568 4.582 64.3014 4.582C63.4061 4.582 62.6808 4.89367 62.1254 5.517C61.5701 6.14033 61.2924 6.97333 61.2924 8.016C61.2924 9.05867 61.5701 9.89167 62.1254 10.515C62.6808 11.1383 63.4061 11.45 64.3014 11.45C64.8568 11.45 65.3498 11.3197 65.7804 11.059C66.2224 10.7983 66.5624 10.4187 66.8004 9.92H69.9964C69.6564 11.212 68.9821 12.232 67.9734 12.98C66.9648 13.7167 65.7521 14.085 64.3354 14.085C63.1794 14.085 62.1424 13.83 61.2244 13.32C60.3178 12.7987 59.6094 12.079 59.0994 11.161C58.5894 10.243 58.3344 9.19467 58.3344 8.016ZM77.6077 4.412C78.6957 4.412 79.5683 4.77467 80.2257 5.5C80.883 6.214 81.2117 7.2 81.2117 8.458V14H78.3217V8.849C78.3217 8.21433 78.1573 7.72133 77.8287 7.37C77.5 7.01867 77.058 6.843 76.5027 6.843C75.9473 6.843 75.5053 7.01867 75.1767 7.37C74.848 7.72133 74.6837 8.21433 74.6837 8.849V14H71.7767V1.42H74.6837V5.789C74.9783 5.36967 75.3807 5.03533 75.8907 4.786C76.4007 4.53667 76.973 4.412 77.6077 4.412ZM87.5497 14.136C86.6204 14.136 85.7817 13.9377 85.0337 13.541C84.2971 13.1443 83.7134 12.5777 83.2827 11.841C82.8634 11.1043 82.6537 10.243 82.6537 9.257C82.6537 8.28233 82.8691 7.42667 83.2997 6.69C83.7304 5.942 84.3197 5.36967 85.0677 4.973C85.8157 4.57633 86.6544 4.378 87.5837 4.378C88.5131 4.378 89.3517 4.57633 90.0997 4.973C90.8477 5.36967 91.4371 5.942 91.8677 6.69C92.2984 7.42667 92.5137 8.28233 92.5137 9.257C92.5137 10.2317 92.2927 11.093 91.8507 11.841C91.4201 12.5777 90.8251 13.1443 90.0657 13.541C89.3177 13.9377 88.4791 14.136 87.5497 14.136ZM87.5497 11.62C88.1051 11.62 88.5754 11.416 88.9607 11.008C89.3574 10.6 89.5557 10.0163 89.5557 9.257C89.5557 8.49767 89.3631 7.914 88.9777 7.506C88.6037 7.098 88.1391 6.894 87.5837 6.894C87.0171 6.894 86.5467 7.098 86.1727 7.506C85.7987 7.90267 85.6117 8.48633 85.6117 9.257C85.6117 10.0163 85.7931 10.6 86.1557 11.008C86.5297 11.416 86.9944 11.62 87.5497 11.62ZM95.518 3.528C95.008 3.528 94.5886 3.38067 94.26 3.086C93.9426 2.78 93.784 2.406 93.784 1.964C93.784 1.51067 93.9426 1.13667 94.26 0.841999C94.5886 0.535999 95.008 0.382999 95.518 0.382999C96.0166 0.382999 96.4246 0.535999 96.742 0.841999C97.0706 1.13667 97.235 1.51067 97.235 1.964C97.235 2.406 97.0706 2.78 96.742 3.086C96.4246 3.38067 96.0166 3.528 95.518 3.528ZM96.963 4.514V14H94.056V4.514H96.963ZM98.4916 9.257C98.4916 8.271 98.69 7.40967 99.0866 6.673C99.4946 5.93633 100.056 5.36967 100.77 4.973C101.495 4.57633 102.322 4.378 103.252 4.378C104.442 4.378 105.433 4.68967 106.227 5.313C107.031 5.93633 107.558 6.81467 107.808 7.948H104.714C104.453 7.22267 103.949 6.86 103.201 6.86C102.668 6.86 102.243 7.06967 101.926 7.489C101.608 7.897 101.45 8.48633 101.45 9.257C101.45 10.0277 101.608 10.6227 101.926 11.042C102.243 11.45 102.668 11.654 103.201 11.654C103.949 11.654 104.453 11.2913 104.714 10.566H107.808C107.558 11.6767 107.031 12.5493 106.227 13.184C105.422 13.8187 104.43 14.136 103.252 14.136C102.322 14.136 101.495 13.9377 100.77 13.541C100.056 13.1443 99.4946 12.5777 99.0866 11.841C98.69 11.1043 98.4916 10.243 98.4916 9.257ZM118.305 9.104C118.305 9.376 118.288 9.65933 118.254 9.954H111.675C111.72 10.5433 111.907 10.9967 112.236 11.314C112.576 11.62 112.989 11.773 113.477 11.773C114.202 11.773 114.706 11.467 114.99 10.855H118.084C117.925 11.4783 117.636 12.0393 117.217 12.538C116.809 13.0367 116.293 13.4277 115.67 13.711C115.046 13.9943 114.349 14.136 113.579 14.136C112.649 14.136 111.822 13.9377 111.097 13.541C110.371 13.1443 109.805 12.5777 109.397 11.841C108.989 11.1043 108.785 10.243 108.785 9.257C108.785 8.271 108.983 7.40967 109.38 6.673C109.788 5.93633 110.354 5.36967 111.08 4.973C111.805 4.57633 112.638 4.378 113.579 4.378C114.497 4.378 115.313 4.57067 116.027 4.956C116.741 5.34133 117.296 5.891 117.693 6.605C118.101 7.319 118.305 8.152 118.305 9.104ZM115.33 8.339C115.33 7.84033 115.16 7.44367 114.82 7.149C114.48 6.85433 114.055 6.707 113.545 6.707C113.057 6.707 112.644 6.84867 112.304 7.132C111.975 7.41533 111.771 7.81767 111.692 8.339H115.33Z" fill="#2D8BD9"/>
</svg>
