<svg width="362" height="248" viewBox="0 0 362 248" fill="none" xmlns="http://www.w3.org/2000/svg">
<path d="M89.0372 118.504C85.3412 118.504 82.0292 117.904 79.1012 116.704C76.1732 115.504 73.8212 113.728 72.0452 111.376C70.3172 109.024 69.4052 106.192 69.3092 102.88H82.4132C82.6052 104.752 83.2532 106.192 84.3572 107.2C85.4612 108.16 86.9012 108.64 88.6772 108.64C90.5012 108.64 91.9412 108.232 92.9972 107.416C94.0532 106.552 94.5812 105.376 94.5812 103.888C94.5812 102.64 94.1492 101.608 93.2852 100.792C92.4692 99.976 91.4372 99.304 90.1892 98.776C88.9892 98.248 87.2612 97.648 85.0052 96.976C81.7412 95.968 79.0772 94.96 77.0132 93.952C74.9492 92.944 73.1732 91.456 71.6852 89.488C70.1972 87.52 69.4532 84.952 69.4532 81.784C69.4532 77.08 71.1572 73.408 74.5652 70.768C77.9732 68.08 82.4132 66.736 87.8852 66.736C93.4532 66.736 97.9412 68.08 101.349 70.768C104.757 73.408 106.581 77.104 106.821 81.856H93.5012C93.4052 80.224 92.8052 78.952 91.7012 78.04C90.5972 77.08 89.1812 76.6 87.4532 76.6C85.9652 76.6 84.7652 77.008 83.8532 77.824C82.9412 78.592 82.4852 79.72 82.4852 81.208C82.4852 82.84 83.2532 84.112 84.7892 85.024C86.3252 85.936 88.7252 86.92 91.9892 87.976C95.2532 89.08 97.8932 90.136 99.9092 91.144C101.973 92.152 103.749 93.616 105.237 95.536C106.725 97.456 107.469 99.928 107.469 102.952C107.469 105.832 106.725 108.448 105.237 110.8C103.797 113.152 101.685 115.024 98.9012 116.416C96.1172 117.808 92.8292 118.504 89.0372 118.504ZM166.31 77.392C171.302 77.392 175.262 78.904 178.19 81.928C181.166 84.952 182.654 89.152 182.654 94.528V118H170.414V96.184C170.414 93.592 169.718 91.6 168.326 90.208C166.982 88.768 165.11 88.048 162.71 88.048C160.31 88.048 158.414 88.768 157.022 90.208C155.678 91.6 155.006 93.592 155.006 96.184V118H142.766V96.184C142.766 93.592 142.07 91.6 140.678 90.208C139.334 88.768 137.462 88.048 135.062 88.048C132.662 88.048 130.766 88.768 129.374 90.208C128.03 91.6 127.358 93.592 127.358 96.184V118H115.046V77.824H127.358V82.864C128.606 81.184 130.238 79.864 132.254 78.904C134.27 77.896 136.55 77.392 139.094 77.392C142.118 77.392 144.806 78.04 147.158 79.336C149.558 80.632 151.43 82.48 152.774 84.88C154.166 82.672 156.062 80.872 158.462 79.48C160.862 78.088 163.478 77.392 166.31 77.392ZM188.817 97.84C188.817 93.712 189.585 90.088 191.121 86.968C192.705 83.848 194.841 81.448 197.529 79.768C200.217 78.088 203.217 77.248 206.529 77.248C209.361 77.248 211.833 77.824 213.945 78.976C216.105 80.128 217.761 81.64 218.913 83.512V77.824H231.225V118H218.913V112.312C217.713 114.184 216.033 115.696 213.873 116.848C211.761 118 209.289 118.576 206.457 118.576C203.193 118.576 200.217 117.736 197.529 116.056C194.841 114.328 192.705 111.904 191.121 108.784C189.585 105.616 188.817 101.968 188.817 97.84ZM218.913 97.912C218.913 94.84 218.049 92.416 216.321 90.64C214.641 88.864 212.577 87.976 210.129 87.976C207.681 87.976 205.593 88.864 203.865 90.64C202.185 92.368 201.345 94.768 201.345 97.84C201.345 100.912 202.185 103.36 203.865 105.184C205.593 106.96 207.681 107.848 210.129 107.848C212.577 107.848 214.641 106.96 216.321 105.184C218.049 103.408 218.913 100.984 218.913 97.912ZM252.444 84.52C253.884 82.312 255.684 80.584 257.844 79.336C260.004 78.04 262.404 77.392 265.044 77.392V90.424H261.66C258.588 90.424 256.284 91.096 254.748 92.44C253.212 93.736 252.444 96.04 252.444 99.352V118H240.132V77.824H252.444V84.52ZM293.321 107.56V118H287.057C282.593 118 279.113 116.92 276.617 114.76C274.121 112.552 272.873 108.976 272.873 104.032V88.048H267.977V77.824H272.873V68.032H285.185V77.824H293.249V88.048H285.185V104.176C285.185 105.376 285.473 106.24 286.049 106.768C286.625 107.296 287.585 107.56 288.929 107.56H293.321Z" fill="#F35D0C"/>
<path d="M54.1768 154.656C54.1768 149.664 55.2568 145.224 57.4168 141.336C59.5768 137.4 62.5768 134.352 66.4168 132.192C70.3048 129.984 74.6968 128.88 79.5928 128.88C85.5928 128.88 90.7288 130.464 95.0008 133.632C99.2728 136.8 102.129 141.12 103.569 146.592H90.0328C89.0248 144.48 87.5848 142.872 85.7128 141.768C83.8888 140.664 81.8008 140.112 79.4488 140.112C75.6568 140.112 72.5848 141.432 70.2328 144.072C67.8808 146.712 66.7048 150.24 66.7048 154.656C66.7048 159.072 67.8808 162.6 70.2328 165.24C72.5848 167.88 75.6568 169.2 79.4488 169.2C81.8008 169.2 83.8888 168.648 85.7128 167.544C87.5848 166.44 89.0248 164.832 90.0328 162.72H103.569C102.129 168.192 99.2728 172.512 95.0008 175.68C90.7288 178.8 85.5928 180.36 79.5928 180.36C74.6968 180.36 70.3048 179.28 66.4168 177.12C62.5768 174.912 59.5768 171.864 57.4168 167.976C55.2568 164.088 54.1768 159.648 54.1768 154.656ZM135.805 139.392C140.413 139.392 144.109 140.928 146.893 144C149.677 147.024 151.069 151.2 151.069 156.528V180H138.829V158.184C138.829 155.496 138.133 153.408 136.741 151.92C135.349 150.432 133.477 149.688 131.125 149.688C128.773 149.688 126.901 150.432 125.509 151.92C124.117 153.408 123.421 155.496 123.421 158.184V180H111.109V126.72H123.421V145.224C124.669 143.448 126.373 142.032 128.533 140.976C130.693 139.92 133.117 139.392 135.805 139.392ZM177.912 180.576C173.976 180.576 170.424 179.736 167.256 178.056C164.136 176.376 161.664 173.976 159.84 170.856C158.064 167.736 157.176 164.088 157.176 159.912C157.176 155.784 158.088 152.16 159.912 149.04C161.736 145.872 164.232 143.448 167.4 141.768C170.568 140.088 174.12 139.248 178.056 139.248C181.992 139.248 185.544 140.088 188.712 141.768C191.88 143.448 194.376 145.872 196.2 149.04C198.024 152.16 198.936 155.784 198.936 159.912C198.936 164.04 198 167.688 196.128 170.856C194.304 173.976 191.784 176.376 188.568 178.056C185.4 179.736 181.848 180.576 177.912 180.576ZM177.912 169.92C180.264 169.92 182.256 169.056 183.888 167.328C185.568 165.6 186.408 163.128 186.408 159.912C186.408 156.696 185.592 154.224 183.96 152.496C182.376 150.768 180.408 149.904 178.056 149.904C175.656 149.904 173.664 150.768 172.08 152.496C170.496 154.176 169.704 156.648 169.704 159.912C169.704 163.128 170.472 165.6 172.008 167.328C173.592 169.056 175.56 169.92 177.912 169.92ZM211.66 135.648C209.5 135.648 207.724 135.024 206.332 133.776C204.988 132.48 204.316 130.896 204.316 129.024C204.316 127.104 204.988 125.52 206.332 124.272C207.724 122.976 209.5 122.328 211.66 122.328C213.772 122.328 215.5 122.976 216.844 124.272C218.236 125.52 218.932 127.104 218.932 129.024C218.932 130.896 218.236 132.48 216.844 133.776C215.5 135.024 213.772 135.648 211.66 135.648ZM217.78 139.824V180H205.468V139.824H217.78ZM224.254 159.912C224.254 155.736 225.094 152.088 226.774 148.968C228.502 145.848 230.878 143.448 233.902 141.768C236.974 140.088 240.478 139.248 244.414 139.248C249.454 139.248 253.654 140.568 257.014 143.208C260.422 145.848 262.654 149.568 263.71 154.368H250.606C249.502 151.296 247.366 149.76 244.198 149.76C241.942 149.76 240.142 150.648 238.798 152.424C237.454 154.152 236.782 156.648 236.782 159.912C236.782 163.176 237.454 165.696 238.798 167.472C240.142 169.2 241.942 170.064 244.198 170.064C247.366 170.064 249.502 168.528 250.606 165.456H263.71C262.654 170.16 260.422 173.856 257.014 176.544C253.606 179.232 249.406 180.576 244.414 180.576C240.478 180.576 236.974 179.736 233.902 178.056C230.878 176.376 228.502 173.976 226.774 170.856C225.094 167.736 224.254 164.088 224.254 159.912ZM308.168 159.264C308.168 160.416 308.096 161.616 307.952 162.864H280.088C280.28 165.36 281.072 167.28 282.464 168.624C283.904 169.92 285.656 170.568 287.72 170.568C290.792 170.568 292.928 169.272 294.128 166.68H307.232C306.56 169.32 305.336 171.696 303.56 173.808C301.832 175.92 299.648 177.576 297.008 178.776C294.368 179.976 291.416 180.576 288.152 180.576C284.216 180.576 280.712 179.736 277.64 178.056C274.568 176.376 272.168 173.976 270.44 170.856C268.712 167.736 267.848 164.088 267.848 159.912C267.848 155.736 268.688 152.088 270.368 148.968C272.096 145.848 274.496 143.448 277.568 141.768C280.64 140.088 284.168 139.248 288.152 139.248C292.04 139.248 295.496 140.064 298.52 141.696C301.544 143.328 303.896 145.656 305.576 148.68C307.304 151.704 308.168 155.232 308.168 159.264ZM295.568 156.024C295.568 153.912 294.848 152.232 293.408 150.984C291.968 149.736 290.168 149.112 288.008 149.112C285.944 149.112 284.192 149.712 282.752 150.912C281.36 152.112 280.496 153.816 280.16 156.024H295.568Z" fill="#2D8BD9"/>
</svg>
