<svg xmlns="http://www.w3.org/2000/svg" xmlns:xlink="http://www.w3.org/1999/xlink" width="500" zoomAndPan="magnify" viewBox="0 0 375 374.999991" height="500" preserveAspectRatio="xMidYMid meet" version="1.0"><defs><clipPath id="2d484a2002"><path d="M 9.488281 9.488281 L 362 9.488281 L 362 362 L 9.488281 362 Z M 9.488281 9.488281 " clip-rule="nonzero"/></clipPath></defs><g clip-path="url(#2d484a2002)"><path fill="#ffffff" d="M 345.199219 219.308594 L 345.199219 297.636719 C 345.199219 313.882812 339.839844 329.980469 330.101562 342.960938 L 318.351562 358.625 C 316.695312 360.832031 314.171875 361.984375 311.628906 361.984375 C 309.875 361.984375 308.105469 361.4375 306.597656 360.304688 C 302.890625 357.527344 302.136719 352.265625 304.910156 348.5625 L 316.660156 332.890625 C 324.25 322.792969 328.414062 310.277344 328.414062 297.636719 L 328.414062 219.308594 C 328.414062 205.425781 317.121094 194.128906 303.238281 194.128906 L 219.308594 194.128906 C 214.667969 194.128906 210.914062 190.375 210.914062 185.738281 L 210.914062 86.820312 C 210.914062 73.574219 201.941406 62.132812 190.03125 60.199219 C 182.507812 59 175.164062 60.976562 169.433594 65.835938 C 163.796875 70.632812 160.558594 77.632812 160.558594 85.023438 L 160.558594 252.878906 C 160.558594 257.519531 156.804688 261.273438 152.167969 261.273438 C 147.527344 261.273438 143.773438 257.519531 143.773438 252.878906 L 143.773438 227.703125 L 135.378906 227.703125 C 121.496094 227.703125 110.203125 238.996094 110.203125 252.878906 L 110.203125 297.636719 C 110.203125 310.261719 114.375 322.785156 121.949219 332.890625 L 133.699219 348.5625 C 136.488281 352.265625 135.734375 357.527344 132.019531 360.304688 C 128.300781 363.085938 123.046875 362.332031 120.273438 358.625 L 108.523438 342.953125 C 98.777344 329.964844 93.417969 313.867188 93.417969 297.636719 L 93.417969 252.878906 C 93.417969 229.742188 112.242188 210.914062 135.378906 210.914062 L 143.773438 210.914062 L 143.773438 85.023438 C 143.773438 72.695312 149.167969 61.042969 158.558594 53.050781 C 167.96875 45.058594 180.433594 41.691406 192.71875 43.625 C 212.667969 46.863281 227.703125 65.433594 227.703125 86.820312 L 227.703125 177.34375 L 303.238281 177.34375 C 326.382812 177.34375 345.199219 196.171875 345.199219 219.308594 Z M 359.527344 62.304688 L 309.171875 11.949219 C 305.890625 8.667969 300.582031 8.667969 297.300781 11.949219 C 294.023438 15.226562 294.023438 20.535156 297.300781 23.816406 L 333.332031 59.84375 L 252.878906 59.84375 C 248.242188 59.84375 244.488281 63.597656 244.488281 68.238281 C 244.488281 72.878906 248.242188 76.628906 252.878906 76.628906 L 333.332031 76.628906 L 297.300781 112.660156 C 294.023438 115.9375 294.023438 121.25 297.300781 124.527344 C 298.941406 126.167969 301.089844 126.988281 303.238281 126.988281 C 305.382812 126.988281 307.53125 126.167969 309.171875 124.527344 L 359.527344 74.171875 C 362.804688 70.894531 362.804688 65.582031 359.527344 62.304688 Z M 38.140625 76.632812 L 118.59375 76.632812 C 123.234375 76.632812 126.988281 72.878906 126.988281 68.238281 C 126.988281 63.597656 123.234375 59.84375 118.59375 59.84375 L 38.140625 59.84375 L 74.171875 23.816406 C 77.449219 20.535156 77.449219 15.226562 74.171875 11.949219 C 70.894531 8.667969 65.582031 8.667969 62.304688 11.949219 L 11.949219 62.304688 C 8.667969 65.582031 8.667969 70.894531 11.949219 74.171875 L 62.304688 124.527344 C 63.945312 126.167969 66.089844 126.988281 68.238281 126.988281 C 70.386719 126.988281 72.53125 126.167969 74.171875 124.527344 C 77.449219 121.25 77.449219 115.9375 74.171875 112.660156 Z M 38.140625 76.632812 " fill-opacity="1" fill-rule="nonzero"/></g></svg>